<?xml version="1.0" encoding="UTF-8" standalone="no"?>
<svg
   version="1.1"
   width="268.06793"
   height="284.28897"
   viewBox="0 0 268.06793 284.28897"
   xml:space="preserve"
   id="svg3202"
   sodipodi:docname="Mediamodifier-Design(1).svg"
   xmlns:inkscape="http://www.inkscape.org/namespaces/inkscape"
   xmlns:sodipodi="http://sodipodi.sourceforge.net/DTD/sodipodi-0.dtd"
   xmlns="http://www.w3.org/2000/svg"
   xmlns:svg="http://www.w3.org/2000/svg"><sodipodi:namedview
   id="namedview3204"
   pagecolor="#ffffff"
   bordercolor="#000000"
   borderopacity="0.25"
   inkscape:showpageshadow="2"
   inkscape:pageopacity="0.0"
   inkscape:pagecheckerboard="0"
   inkscape:deskcolor="#d1d1d1"
   showgrid="false" />
<desc
   id="desc2781">Created with Fabric.js 5.2.4</desc>
<defs
   id="defs2783" />



<g
   transform="matrix(1.33,0,0,1.33,161.82896,172.58)"
   clip-path="url(#CLIPPATH_4)"
   id="g2797">
<clipPath
   id="CLIPPATH_4">
	<rect
   transform="translate(21.97,-61.85)"
   id="pe40bddc769"
   x="-172.8"
   y="-172.8"
   rx="0"
   ry="0"
   width="345.60001"
   height="345.60001" />
</clipPath>
<path
   style="opacity:1;fill:none;fill-rule:nonzero;stroke:#1f77b4;stroke-width:1.5;stroke-linecap:square;stroke-linejoin:miter;stroke-miterlimit:4;stroke-dasharray:none;stroke-dashoffset:0"
   vector-effect="non-scaling-stroke"
   transform="translate(-150.83,-234.65)"
   d="m 159.75445,182.36629 3.4408,-0.075 3.39459,0.1289 3.33526,0.33268 3.26302,0.53559 3.17803,0.73689 3.08059,0.9358 2.97096,1.13159 2.84953,1.32351 2.71665,1.51081 2.57276,1.69279 2.41838,1.86867 2.25397,2.03778 2.08016,2.19942 1.89752,2.35289 1.70672,2.49756 1.50844,2.63278 1.30343,2.75796 1.09246,2.87252 0.87632,2.97593 0.65585,3.06767 0.43194,3.14732 0.20546,3.21442 -0.0226,3.26864 -0.25148,3.30964 -0.48004,3.33718 -0.70739,3.35102 -0.93254,3.35105 -1.15453,3.33716 -1.37237,3.30933 -1.58511,3.2676 -1.79179,3.21207 -1.99147,3.14291 -2.18325,3.06037 -2.36625,2.96474 -2.53963,2.85639 -2.70257,2.73575 -2.85431,2.60333 -2.99417,2.45965 -3.12145,2.30537 -3.23559,2.14112 -3.33603,1.96763 -3.42233,1.78569 -3.49406,1.59608 -3.55092,1.39967 -3.59264,1.19733 -3.61904,0.98997 -3.63004,0.77854 -3.62559,0.56399 -3.60575,0.34728 -3.57065,0.12938 -3.52046,-0.0887 -3.4555,-0.30609 -3.37607,-0.52174 -3.2826,-0.73472 -3.17555,-0.94412 -3.05546,-1.14906 -2.92291,-1.34864 -2.77855,-1.54203 -2.62306,-1.72846 -2.45718,-1.90714 -2.28167,-2.07737 -2.09734,-2.2385 -1.90503,-2.38989 -1.70558,-2.53097 -1.499892,-2.66126 -1.288827,-2.78026 -1.073307,-2.88759 -0.854233,-2.98289 -0.632515,-3.06585 -0.40906,-3.13623 -0.18477,-3.19387 0.03946,-3.23859 0.262767,-3.27032 0.484272,-3.28905 0.703137,-3.29476 0.918539,-3.28754 1.129679,-3.26748 1.335785,-3.23475 1.536115,-3.18954 1.72993,-3.13209 1.91658,-3.06268 2.09538,-2.98164 2.26572,-2.8893 2.42703,-2.78606 2.57872,-2.67234 2.72031,-2.54858 2.85129,-2.41529 2.97125,-2.27293 3.07974,-2.12207 3.17645,-1.96326 3.26099,-1.79707 3.33311,-1.62411 3.39254,-1.44501 3.43909,-1.2604 3.47255,-1.07093 3.49283,-0.87731 3.49982,-0.68019 3.49348,-0.4803 3.4738,-0.27833"
   stroke-linecap="round"
   id="path2795" />
</g>
<g
   transform="matrix(1.33,0,0,1.33,194.23896,160.8)"
   clip-path="url(#CLIPPATH_5)"
   id="g2804">
<clipPath
   id="CLIPPATH_5">
	<rect
   transform="translate(-2.32,-52.99)"
   id="rect2799"
   x="-172.8"
   y="-172.8"
   rx="0"
   ry="0"
   width="345.60001"
   height="345.60001" />
</clipPath>
<path
   style="opacity:1;fill:none;fill-rule:nonzero;stroke:#ff7f0e;stroke-width:1.5;stroke-linecap:square;stroke-linejoin:miter;stroke-miterlimit:4;stroke-dasharray:none;stroke-dashoffset:0"
   vector-effect="non-scaling-stroke"
   transform="translate(-175.12,-225.79)"
   d="m 128.19515,213.65154 -0.62739,-2.49157 -0.42856,-2.42657 -0.22893,-2.35167 -0.0294,-2.2673 0.16922,-2.17392 0.36603,-2.07205 0.56021,-1.96219 0.751,-1.84492 0.9376,-1.72079 1.11934,-1.59041 1.29548,-1.45438 1.46541,-1.31331 1.62852,-1.16781 1.78423,-1.01855 1.93203,-0.8661 2.07144,-0.71111 2.20202,-0.55421 2.32338,-0.39598 2.43514,-0.23706 2.53703,-0.078 2.62874,0.0806 2.71006,0.23815 2.78078,0.39412 2.84075,0.54799 2.88983,0.6992 2.92796,0.84728 2.95506,0.99173 2.97111,1.13207 2.97613,1.26786 2.97015,1.39866 2.95324,1.52405 2.9255,1.64364 2.88705,1.75704 2.83804,1.8639 2.77863,1.96386 2.70907,2.0566 2.62955,2.14182 2.54034,2.21923 2.44172,2.28856 2.33399,2.34955 2.2175,2.402 2.0926,2.44567 1.95965,2.4804 1.8191,2.50601 1.67135,2.52238 1.5169,2.52937 1.35619,2.5269 1.18979,2.51493 1.01819,2.49339 0.84198,2.46229 0.66176,2.42165 0.47813,2.37155 0.29174,2.31203 0.10325,2.24327 -0.0866,2.16539 -0.27725,2.0786 -0.46783,1.98314 -0.65764,1.87927 -0.84593,1.76731 -1.03193,1.64761 -1.21486,1.52056 -1.39393,1.38661 -1.56836,1.2462 -1.73738,1.09987 -1.90018,0.94816 -2.05603,0.79166 -2.20416,0.63099 -2.34384,0.4668 -2.47439,0.29978 -2.59509,0.13065 -2.70536,-0.0399 -2.80455,-0.21099 -2.89215,-0.38197 -2.96765,-0.55201 -3.03058,-0.72031 -3.0806,-0.8861 -3.11736,-1.04855 -3.14061,-1.2069 -3.15018,-1.36038 -3.14595,-1.50824 -3.1279,-1.64975 -3.09605,-1.78421 -3.05052,-1.91096 -2.99152,-2.02939 -2.9193,-2.13891 -2.83421,-2.23901 -2.73666,-2.32918 -2.62713,-2.40905 -2.50616,-2.4782 -2.37438,-2.53638 -2.23243,-2.58331 -2.08102,-2.61884 -1.92092,-2.64285 -1.75293,-2.65527 -1.57787,-2.65613 -1.39662,-2.64551 -1.21005,-2.62352 -1.01904,-2.59037 -0.82452,-2.54628"
   stroke-linecap="round"
   id="path2802" />
</g>
<g
   transform="matrix(1.33,0,0,1.33,163.96896,150.85)"
   clip-path="url(#CLIPPATH_6)"
   id="g2811">
<clipPath
   id="CLIPPATH_6">
	<rect
   transform="translate(20.37,-45.48)"
   id="rect2806"
   x="-172.8"
   y="-172.8"
   rx="0"
   ry="0"
   width="345.60001"
   height="345.60001" />
</clipPath>
<path
   style="opacity:1;fill:none;fill-rule:nonzero;stroke:#2ca02c;stroke-width:1.5;stroke-linecap:square;stroke-linejoin:miter;stroke-miterlimit:4;stroke-dasharray:none;stroke-dashoffset:0"
   vector-effect="non-scaling-stroke"
   transform="translate(-152.43,-218.28)"
   d="m 190.4849,209.26462 -2.81195,1.05544 -2.96461,1.0905 -3.10513,1.12102 -3.23275,1.14678 -3.34677,1.16766 -3.44658,1.1835 -3.53159,1.19423 -3.60134,1.19971 -3.6554,1.19996 -3.69345,1.19489 -3.71525,1.18455 -3.72066,1.16895 -3.7096,1.14818 -3.68212,1.12231 -3.63834,1.09146 -3.57848,1.05581 -3.50283,1.01551 -3.4118,0.97077 -3.30587,0.92181 -3.18558,0.8689 -3.05156,0.81228 -2.90455,0.75226 -2.74527,0.68913 -2.57456,0.62321 -2.39332,0.55483 -2.20245,0.48432 -2.00289,0.41202 -1.79567,0.33828 -1.58177,0.26347 -1.362233,0.18789 -1.138081,0.11193 -0.910365,0.0359 -0.680116,-0.0398 -0.44836,-0.11499 -0.216107,-0.18922 0.01565,-0.26224 0.245953,-0.33374 0.473857,-0.40346 0.698463,-0.47111 0.918901,-0.53648 1.134341,-0.59931 1.343997,-0.65938 1.5471,-0.7165 1.74298,-0.77048 1.93095,-0.82116 2.11039,-0.86837 2.28075,-0.91199 2.44149,-0.95188 2.59212,-0.98796 2.7322,-1.02011 2.86135,-1.04828 2.97921,-1.07238 3.08543,-1.09238 3.17979,-1.10823 3.26202,-1.11992 3.33193,-1.12743 3.38935,-1.13076 3.43417,-1.12993 3.46629,-1.12494 3.48565,-1.11585 3.49225,-1.10267 3.48605,-1.0855 3.46715,-1.06435 3.43557,-1.03934 3.39146,-1.01052 3.33492,-0.97799 3.26614,-0.94186 3.18531,-0.90223 3.09266,-0.85924 2.98847,-0.81299 2.87301,-0.76364 2.74662,-0.71133 2.60968,-0.65624 2.46256,-0.59851 2.30571,-0.53834 2.1396,-0.47592 1.96472,-0.41143 1.78162,-0.3451 1.59087,-0.27714 1.39309,-0.20779 1.18894,-0.13727 0.97908,-0.0659 0.76426,0.006 0.54522,0.0787 0.32275,0.15128 0.0977,0.22368 -0.1291,0.29564 -0.35678,0.36685 -0.58439,0.43702 -0.81104,0.50584 -1.03577,0.57302 -1.2576,0.63827 -1.47557,0.70125 -1.68871,0.76172 -1.89604,0.81934 -2.09657,0.87384 -2.28936,0.92498 -2.47346,0.97244 -2.64795,1.01601"
   stroke-linecap="round"
   id="path2809" />
</g>
<g
   transform="matrix(1.33,0,0,1.33,183.86896,148.1)"
   clip-path="url(#CLIPPATH_7)"
   id="g2818">
<clipPath
   id="CLIPPATH_7">
	<rect
   transform="translate(5.51,-43.49)"
   id="rect2813"
   x="-172.8"
   y="-172.8"
   rx="0"
   ry="0"
   width="345.60001"
   height="345.60001" />
</clipPath>
<path
   style="opacity:1;fill:none;fill-rule:nonzero;stroke:#d62728;stroke-width:1.5;stroke-linecap:square;stroke-linejoin:miter;stroke-miterlimit:4;stroke-dasharray:none;stroke-dashoffset:0"
   vector-effect="non-scaling-stroke"
   transform="translate(-167.29,-216.29)"
   d="m 151.43865,163.9568 1.35297,-0.16711 1.41367,0.0435 1.46898,0.25511 1.51865,0.46682 1.56239,0.67775 1.59995,0.88705 1.63113,1.09381 1.6557,1.29709 1.67351,1.49603 1.6844,1.6897 1.68828,1.87719 1.68503,2.05763 1.67463,2.23017 1.65706,2.39392 1.63232,2.54812 1.6005,2.69196 1.56166,2.82473 1.51597,2.94573 1.46357,3.05433 1.40468,3.14996 1.33953,3.23212 1.26842,3.30035 1.19165,3.35429 1.10956,3.39363 1.02253,3.41817 0.93098,3.42775 0.83531,3.42232 0.73598,3.40191 0.63348,3.36662 0.52828,3.3166 0.42089,3.25217 0.31181,3.17362 0.20157,3.08139 0.0907,2.97595 -0.0203,2.85786 -0.13095,2.72772 -0.24068,2.58622 -0.34899,2.43404 -0.45544,2.272 -0.55952,2.10086 -0.66081,1.92148 -0.75885,1.73474 -0.85327,1.54153 -0.94365,1.34273 -1.02965,1.1393 -1.11095,0.93214 -1.18723,0.72218 -1.25823,0.51034 -1.3237,0.29753 -1.38343,0.0847 -1.43723,-0.12742 -1.48496,-0.33785 -1.52646,-0.54579 -1.56167,-0.75042 -1.5905,-0.951 -1.6129,-1.14678 -1.62886,-1.33705 -1.63837,-1.52114 -1.64149,-1.69842 -1.63824,-1.86829 -1.6287,-2.0302 -1.61298,-2.18362 -1.59116,-2.32807 -1.56339,-2.4631 -1.52982,-2.58833 -1.49059,-2.70334 -1.44591,-2.80785 -1.39592,-2.90152 -1.34088,-2.98413 -1.28097,-3.05542 -1.21642,-3.1152 -1.14747,-3.16334 -1.07438,-3.19968 -0.9974,-3.22416 -0.91678,-3.2367 -0.83283,-3.23728 -0.74581,-3.22591 -0.65601,-3.20262 -0.56374,-3.16747 -0.46931,-3.1206 -0.37302,-3.06209 -0.27521,-2.99214 -0.17619,-2.91095 -0.0763,-2.81873 0.0241,-2.71575 0.12472,-2.60234 0.22516,-2.47878 0.32508,-2.34548 0.42414,-2.20283 0.52194,-2.05126 0.61817,-1.89125 0.71243,-1.72331 0.80438,-1.54798 0.89362,-1.36586 0.97984,-1.17753 1.06265,-0.98369 1.14171,-0.78498 1.21668,-0.58215 1.2872,-0.37592"
   stroke-linecap="round"
   id="path2816" />
</g>
<g
   transform="matrix(1.33,0,0,1.33,184.41896,127.48)"
   clip-path="url(#CLIPPATH_8)"
   id="g2825">
<clipPath
   id="CLIPPATH_8">
	<rect
   transform="translate(5.09,-28.03)"
   id="rect2820"
   x="-172.8"
   y="-172.8"
   rx="0"
   ry="0"
   width="345.60001"
   height="345.60001" />
</clipPath>
<path
   style="opacity:1;fill:none;fill-rule:nonzero;stroke:#9467bd;stroke-width:1.5;stroke-linecap:square;stroke-linejoin:miter;stroke-miterlimit:4;stroke-dasharray:none;stroke-dashoffset:0"
   vector-effect="non-scaling-stroke"
   transform="translate(-167.71,-200.83)"
   d="m 148.9672,181.03193 1.80142,-3.14489 1.87139,-3.04469 1.93304,-2.93162 1.98615,-2.80628 2.03052,-2.66935 2.06602,-2.52151 2.09255,-2.36354 2.11008,-2.19624 2.1186,-2.02042 2.11817,-1.83696 2.10887,-1.64671 2.09083,-1.45059 2.06422,-1.24949 2.02923,-1.04432 1.98612,-0.83601 1.93515,-0.62543 1.87661,-0.41351 1.81083,-0.20109 1.73816,0.0109 1.65896,0.22173 1.57362,0.43047 1.48255,0.63639 1.38613,0.83869 1.28483,1.03667 1.17905,1.22959 1.06925,1.41682 0.95587,1.5977 0.83935,1.77164 0.72016,1.93806 0.59872,2.09645 0.47552,2.2463 0.35097,2.38714 0.22553,2.51858 0.0996,2.64018 -0.0263,2.75163 -0.15174,2.85256 -0.27638,2.94271 -0.39977,3.0218 -0.52149,3.08963 -0.64114,3.14598 -0.75832,3.19069 -0.87265,3.22364 -0.98374,3.24472 -1.09124,3.25386 -1.19477,3.25102 -1.29397,3.2362 -1.38854,3.20943 -1.4781,3.17075 -1.56236,3.12024 -1.64101,3.05807 -1.71375,2.98433 -1.78028,2.89927 -1.84037,2.80308 -1.89375,2.69603 -1.94016,2.57841 -1.97942,2.45057 -2.01131,2.31287 -2.03565,2.16573 -2.05229,2.00959 -2.06108,1.84495 -2.06194,1.67232 -2.05475,1.4923 -2.03947,1.30547 -2.01606,1.11249 -1.98454,0.91404 -1.94494,0.71084 -1.89731,0.50366 -1.84177,0.29326 -1.77844,0.0805 -1.70752,-0.13378 -1.62919,-0.34873 -1.54372,-0.56341 -1.45138,-0.77694 -1.35251,-0.98836 -1.24746,-1.19675 -1.13662,-1.40116 -1.02046,-1.60065 -0.8994,-1.79426 -0.77397,-1.9811 -0.64469,-2.16024 -0.51213,-2.33082 -0.37687,-2.49197 -0.2395,-2.64289 -0.10067,-2.78282 0.039,-2.91103 0.17884,-3.02686 0.3182,-3.12971 0.45644,-3.21903 0.59286,-3.29439 0.72684,-3.35536 0.85774,-3.40163 0.98489,-3.43297 1.10775,-3.44923 1.22567,-3.45033 1.33815,-3.43628 1.44462,-3.40718 1.54462,-3.3632 1.63769,-3.30458 1.72341,-3.23168"
   stroke-linecap="round"
   id="path2823" />
</g>
<g
   transform="matrix(1.33,0,0,1.33,151.80896,137.84)"
   clip-path="url(#CLIPPATH_9)"
   id="g2832">
<clipPath
   id="CLIPPATH_9">
	<rect
   transform="translate(29.48,-35.78)"
   id="rect2827"
   x="-172.8"
   y="-172.8"
   rx="0"
   ry="0"
   width="345.60001"
   height="345.60001" />
</clipPath>
<path
   style="opacity:1;fill:none;fill-rule:nonzero;stroke:#8c564b;stroke-width:1.5;stroke-linecap:square;stroke-linejoin:miter;stroke-miterlimit:4;stroke-dasharray:none;stroke-dashoffset:0"
   vector-effect="non-scaling-stroke"
   transform="translate(-143.32,-208.58)"
   d="m 177.62683,171.54026 -3.16998,-1.4801 -3.29991,-1.32238 -3.4163,-1.15888 -3.5186,-0.99032 -3.60636,-0.81739 -3.67912,-0.64084 -3.73657,-0.46141 -3.77841,-0.27991 -3.80443,-0.0971 -3.81452,0.0862 -3.80859,0.26924 -3.78668,0.45117 -3.74888,0.63122 -3.69535,0.80858 -3.62632,0.98251 -3.54213,1.15223 -3.44314,1.31701 -3.32982,1.47614 -3.20267,1.62895 -3.06228,1.77478 -2.90929,1.913 -2.74439,2.04307 -2.568322,2.16442 -2.381889,2.27658 -2.185914,2.37908 -1.981271,2.47155 -1.768864,2.55361 -1.549623,2.62497 -1.324501,2.68537 -1.09447,2.73461 -0.860513,2.77253 -0.623622,2.79903 -0.384788,2.81408 -0.145008,2.81764 0.09474,2.80978 0.333462,2.79057 0.570214,2.76018 0.804044,2.71875 1.034034,2.66655 1.259283,2.60381 1.478925,2.53084 1.692121,2.448 1.898068,2.35564 2.095995,2.25418 2.285176,2.14407 2.464913,2.02576 2.63457,1.89974 2.79352,1.76653 2.94123,1.62669 3.07717,1.48074 3.20085,1.32928 3.31186,1.1729 3.40984,1.01219 3.49444,0.84777 3.56538,0.68027 3.62245,0.51031 3.66544,0.33854 3.69423,0.16559 3.70873,-0.008 3.70889,-0.18127 3.69474,-0.3539 3.66632,-0.52513 3.62375,-0.69437 3.56717,-0.86093 3.49679,-1.02426 3.41286,-1.1837 3.31568,-1.33867 3.20555,-1.48861 3.08291,-1.63292 2.94816,-1.77107 2.80177,-1.90251 2.64426,-2.02676 2.47621,-2.14329 2.29818,-2.25165 2.11085,-2.35142 1.91487,-2.44216 1.71095,-2.5235 1.49987,-2.59508 1.28238,-2.65657 1.05931,-2.70772 0.83151,-2.74825 0.59982,-2.77795 0.36516,-2.79667 0.12844,-2.80425 -0.10943,-2.80062 -0.34748,-2.78573 -0.58476,-2.7596 -0.82031,-2.72223 -1.05317,-2.67376 -1.28236,-2.6143 -1.50693,-2.54405 -1.72592,-2.46324 -1.93841,-2.37216 -2.14347,-2.27111 -2.3402,-2.16051 -2.52775,-2.04075 -2.70527,-1.9123 -2.87198,-1.77566 -3.02712,-1.63141"
   stroke-linecap="round"
   id="path2830" />
</g>
<g
   transform="matrix(1.33,0,0,1.33,141.63896,163.19)"
   clip-path="url(#CLIPPATH_10)"
   id="g2839">
<clipPath
   id="CLIPPATH_10">
	<rect
   transform="translate(37.11,-54.83)"
   id="rect2834"
   x="-172.8"
   y="-172.8"
   rx="0"
   ry="0"
   width="345.60001"
   height="345.60001" />
</clipPath>
<path
   style="opacity:1;fill:none;fill-rule:nonzero;stroke:#0000ff;stroke-width:2;stroke-linecap:square;stroke-linejoin:miter;stroke-miterlimit:4;stroke-dasharray:none;stroke-dashoffset:0"
   vector-effect="non-scaling-stroke"
   transform="translate(-135.69,-227.63)"
   d="m 151.60374,285.71555 -3.41489,0.72525 -3.46215,0.48684 -3.4953,0.24713 -3.51424,0.007 -3.51902,-0.23218 -3.50967,-0.46987 -3.48633,-0.705 -3.44917,-0.93664 -3.39841,-1.16392 -3.33432,-1.38596 -3.25724,-1.60191 -3.16751,-1.811 -3.06557,-2.01244 -2.95186,-2.2055 -2.82685,-2.38949 -2.691095,-2.56374 -2.545142,-2.72764 -2.389579,-2.88064 -2.225025,-3.02217 -2.052128,-3.15177 -1.871553,-3.26898 -1.683993,-3.37342 -1.49016,-3.46472 -1.290779,-3.54258 -1.086594,-3.60673 -0.878364,-3.65698 -0.666855,-3.69313 -0.452843,-3.71508 -0.237116,-3.72274 -0.02046,-3.7161 0.196328,-3.69517 0.412456,-3.66001 0.627131,-3.61075 0.83956,-3.54754 1.048959,-3.47059 1.254547,-3.38014 1.455555,-3.27652 1.651223,-3.16007 1.840805,-3.03115 2.023574,-2.89025 2.198816,-2.73782 2.36584,-2.57439 2.523981,-2.40054 2.672591,-2.2169 2.81107,-2.02409 2.93881,-1.82283 3.0553,-1.61384 3.15998,-1.39792 3.25242,-1.17584 3.33217,-0.94845 3.39883,-0.71664 3.45208,-0.48127 3.49161,-0.24329 3.5172,-0.004 3.52865,0.23675 3.52584,0.47687 3.50869,0.71575 3.4772,0.9524 3.4314,1.18583 3.37141,1.41503 3.29742,1.63904 3.20964,1.85689 3.10839,2.06762 2.99403,2.2703 2.86699,2.46402 2.72773,2.64794 2.57684,2.82119 2.41489,2.983 2.24257,3.13263 2.06057,3.26939 1.86966,3.39262 1.67065,3.50179 1.46441,3.59634 1.25179,3.67585 1.03376,3.73996 0.81123,3.78834 0.58521,3.82077 0.35666,3.8371 0.1266,3.83727 -0.10394,3.82125 -0.33396,3.78915 -0.56246,3.7411 -0.78843,3.67735 -1.01086,3.59819 -1.22882,3.50401 -1.44134,3.39525 -1.64753,3.27242 -1.84649,3.13609 -2.03741,2.98692 -2.21946,2.82558 -2.39192,2.65281 -2.55408,2.4694 -2.70529,2.27619 -2.84496,2.07404 -2.97256,1.86384 -3.08761,1.64652 -3.18969,1.42303 -3.27845,1.19435 -3.35359,0.96143"
   stroke-linecap="round"
   id="path2837" />
</g>
<g
   transform="matrix(1.33,0,0,1.33,147.76896,107.35)"
   clip-path="url(#CLIPPATH_11)"
   id="g2846">
<clipPath
   id="CLIPPATH_11">
	<rect
   transform="translate(32.51,-12.9)"
   id="rect2841"
   x="-172.8"
   y="-172.8"
   rx="0"
   ry="0"
   width="345.60001"
   height="345.60001" />
</clipPath>
<path
   style="opacity:1;fill:none;fill-rule:nonzero;stroke:#008000;stroke-width:2;stroke-linecap:square;stroke-linejoin:miter;stroke-miterlimit:4;stroke-dasharray:none;stroke-dashoffset:0"
   vector-effect="non-scaling-stroke"
   transform="translate(-140.29,-185.7)"
   d="m 82.526197,205.62209 0.586867,-2.29331 0.826798,-2.37021 1.064175,-2.43728 1.297895,-2.49416 1.526863,-2.5405 1.749992,-2.57601 1.966213,-2.60049 2.17448,-2.61372 2.373782,-2.61562 2.563142,-2.60611 2.741636,-2.58521 2.90839,-2.55295 3.06257,-2.50951 3.20346,-2.45502 3.33035,-2.38976 3.44263,-2.31403 3.53981,-2.22819 3.62141,-2.13266 3.68709,-2.0279 3.73657,-1.91444 3.76967,-1.79283 3.7863,-1.66367 3.78645,-1.5276 3.7702,-1.38528 3.73774,-1.23743 3.68928,-1.08473 3.62519,-0.92792 3.54583,-0.76776 3.45172,-0.60497 3.34339,-0.44034 3.22142,-0.27458 3.0865,-0.10844 2.93933,0.0573 2.78067,0.22204 2.61132,0.38499 2.43208,0.54549 2.24385,0.70291 2.04749,0.85661 1.84388,1.00602 1.63396,1.15054 1.41862,1.28968 1.19879,1.42292 0.97538,1.5498 0.7493,1.66989 0.52146,1.78282 0.29275,1.88821 0.064,1.98574 -0.16385,2.07512 -0.39003,2.15612 -0.61372,2.22849 -0.83412,2.29207 -1.05045,2.34668 -1.26201,2.39222 -1.46806,2.42858 -1.66791,2.45571 -1.86094,2.47356 -2.04648,2.48214 -2.22397,2.48146 -2.39282,2.47156 -2.55249,2.45251 -2.70249,2.42443 -2.84231,2.38741 -2.97154,2.34161 -3.08972,2.28718 -3.19649,2.22432 -3.29147,2.15324 -3.37436,2.07418 -3.44484,1.98737 -3.50265,1.89311 -3.54756,1.79169 -3.57939,1.68343 -3.59795,1.56867 -3.60314,1.44778 -3.59485,1.32113 -3.57305,1.18914 -3.53769,1.05223 -3.48885,0.91086 -3.42657,0.76548 -3.35097,0.61659 -3.26221,0.46471 -3.1605,0.31036 -3.0461,0.15409 -2.91932,-0.004 -2.78049,-0.16194 -2.630041,-0.32053 -2.468429,-0.47866 -2.296161,-0.63575 -2.113805,-0.79114 -1.921977,-0.94421 -1.721352,-1.0943 -1.51265,-1.24078 -1.296642,-1.383 -1.074154,-1.52031 -0.846049,-1.65209 -0.613241,-1.77773 -0.376681,-1.89662 -0.137357,-2.00815 0.103711,-2.11181 0.345475,-2.20702"
   stroke-linecap="round"
   id="path2844" />
</g>
<g
   transform="matrix(1.33,0,0,1.33,230.29896,132.83)"
   clip-path="url(#CLIPPATH_12)"
   id="g2853">
<clipPath
   id="CLIPPATH_12">
	<rect
   transform="translate(-29.29,-32.06)"
   id="rect2848"
   x="-172.8"
   y="-172.8"
   rx="0"
   ry="0"
   width="345.60001"
   height="345.60001" />
</clipPath>
<path
   style="opacity:1;fill:none;fill-rule:nonzero;stroke:#800080;stroke-width:2;stroke-linecap:square;stroke-linejoin:miter;stroke-miterlimit:4;stroke-dasharray:none;stroke-dashoffset:0"
   vector-effect="non-scaling-stroke"
   transform="translate(-202.09,-204.86)"
   d="m 199.04915,241.33622 -1.38003,-2.97396 -1.36216,-3.12055 -1.33821,-3.2536 -1.30823,-3.37241 -1.27239,-3.47634 -1.23082,-3.56485 -1.18372,-3.63749 -1.13133,-3.69389 -1.07391,-3.73376 -1.01172,-3.75694 -0.94511,-3.76333 -0.87439,-3.75297 -0.79993,-3.72593 -0.7221,-3.68246 -0.6413,-3.62282 -0.55794,-3.5474 -0.47243,-3.45667 -0.38519,-3.35118 -0.29665,-3.23152 -0.20723,-3.09842 -0.11736,-2.95257 -0.0275,-2.79481 0.0621,-2.62597 0.15083,-2.44693 0.2384,-2.25861 0.32446,-2.06196 0.4086,-1.85793 0.49052,-1.6475 0.56988,-1.43166 0.64637,-1.21137 0.71973,-0.98764 0.78969,-0.7614 0.856,-0.53363 0.91846,-0.30524 0.97687,-0.0772 1.03105,0.14973 1.08085,0.37458 1.12614,0.59655 1.1668,0.81485 1.20275,1.02874 1.23389,1.23744 1.26019,1.44032 1.28159,1.63667 1.29809,1.8259 1.30965,2.00741 1.3163,2.18067 1.31806,2.34513 1.31496,2.50033 1.30703,2.64582 1.29436,2.78118 1.277,2.90603 1.25503,3.02002 1.22856,3.12282 1.19766,3.21414 1.16248,3.29372 1.12311,3.36134 1.0797,3.41678 1.03238,3.45987 0.98131,3.49047 0.92664,3.50846 0.86853,3.51376 0.80718,3.50629 0.74275,3.48607 0.67546,3.45305 0.6055,3.40731 0.53309,3.3489 0.45845,3.27793 0.38182,3.19455 0.30345,3.09892 0.22357,2.99128 0.14248,2.87188 0.0604,2.741 -0.0223,2.59901 -0.10543,2.44629 -0.18862,2.28327 -0.2716,2.11041 -0.35403,1.92827 -0.4356,1.73741 -0.516,1.53845 -0.59487,1.33206 -0.67188,1.11897 -0.74673,0.89994 -0.81903,0.67579 -0.8885,0.44737 -0.95478,0.21558 -1.01754,-0.0186 -1.0765,-0.2543 -1.13132,-0.49042 -1.18173,-0.72596 -1.22743,-0.95985 -1.26817,-1.19105 -1.30372,-1.41845 -1.33384,-1.64098 -1.35835,-1.85756 -1.37708,-2.06712 -1.38986,-2.26861 -1.39663,-2.46101 -1.39726,-2.64332 -1.39174,-2.8146"
   stroke-linecap="round"
   id="path2851" />
</g>
<g
   transform="matrix(1.33,0,0,1.33,173.40896,195.51)"
   clip-path="url(#CLIPPATH_13)"
   id="g2860">
<clipPath
   id="CLIPPATH_13">
	<rect
   transform="translate(13.26,-79.01)"
   id="rect2855"
   x="-172.8"
   y="-172.8"
   rx="0"
   ry="0"
   width="345.60001"
   height="345.60001" />
</clipPath>
<path
   style="opacity:1;fill:none;fill-rule:nonzero;stroke:#ff0000;stroke-width:2;stroke-linecap:square;stroke-linejoin:miter;stroke-miterlimit:4;stroke-dasharray:none;stroke-dashoffset:0"
   vector-effect="non-scaling-stroke"
   transform="translate(-159.54,-251.81)"
   d="m 164.31396,215.00086 -3.92058,0.20115 -3.92481,0.33968 -3.91466,0.47707 -3.89014,0.6129 -3.85129,0.74669 -3.7982,0.87801 -3.73096,1.00639 -3.64973,1.13139 -3.55473,1.25256 -3.44616,1.36948 -3.3243,1.48169 -3.1895,1.58879 -3.0421,1.69033 -2.88251,1.78594 -2.7112,1.87519 -2.52867,1.95771 -2.33547,2.03311 -2.13221,2.10107 -1.91953,2.16121 -1.69814,2.21324 -1.468785,2.25687 -1.232274,2.29181 -0.989443,2.31783 -0.741184,2.33473 -0.488439,2.3423 -0.232181,2.34044 0.02657,2.32901 0.286765,2.30794 0.547317,2.27723 0.807119,2.23689 1.065037,2.18696 1.319924,2.12759 1.570624,2.05891 1.81597,1.98114 2.05482,1.89453 2.28601,1.79939 2.50842,1.69609 2.72096,1.58501 2.92255,1.46662 3.11217,1.34141 3.28885,1.20994 3.45167,1.07275 3.59979,0.9305 3.73242,0.78383 3.84888,0.6334 3.94853,0.47995 4.03087,0.3242 4.09546,0.16689 4.14195,0.009 4.17015,-0.14939 4.1799,-0.30684 4.17117,-0.4628 4.14405,-0.61654 4.09872,-0.76733 4.03545,-0.91446 3.95462,-1.05723 3.85669,-1.19501 3.74222,-1.32715 3.61184,-1.45307 3.4663,-1.57225 3.30634,-1.68416 3.13284,-1.78834 2.9467,-1.88441 2.7489,-1.97197 2.54039,-2.05074 2.32226,-2.12043 2.09554,-2.18085 1.86133,-2.23183 1.6207,-2.27323 1.37478,-2.30502 1.12466,-2.32715 0.87144,-2.33964 0.6162,-2.34257 0.36001,-2.33603 0.10392,-2.32015 -0.15106,-2.29514 -0.40392,-2.26117 -0.65372,-2.21849 -0.89951,-2.16739 -1.14042,-2.10811 -1.3756,-2.04102 -1.60421,-1.96641 -1.82552,-1.88467 -2.03878,-1.79615 -2.2433,-1.70123 -2.43844,-1.60031 -2.6236,-1.49382 -2.79822,-1.38215 -2.96176,-1.26573 -3.11376,-1.14501 -3.25377,-1.02041 -3.38139,-0.89238 -3.49626,-0.76137 -3.59806,-0.62783 -3.68648,-0.49221 -3.76129,-0.35495 -3.82226,-0.21654 -3.86923,-0.0774 -3.90204,0.062"
   stroke-linecap="round"
   id="path2858" />
</g>
<g
   transform="matrix(1.33,0,0,1.33,127.60896,240.22)"
   clip-path="url(#CLIPPATH_14)"
   id="g2867">
<clipPath
   id="CLIPPATH_14">
	<rect
   transform="translate(47.54,-112.53)"
   id="rect2862"
   x="-172.8"
   y="-172.8"
   rx="0"
   ry="0"
   width="345.60001"
   height="345.60001" />
</clipPath>
<path
   style="opacity:1;fill:none;fill-rule:nonzero;stroke:#e377c2;stroke-width:1.5;stroke-linecap:square;stroke-linejoin:miter;stroke-miterlimit:4;stroke-dasharray:none;stroke-dashoffset:0"
   vector-effect="non-scaling-stroke"
   transform="translate(-125.26,-285.33)"
   d="m 32.055107,255.08246 90.842973,29.48589 95.55871,31.01654"
   stroke-linecap="round"
   id="path2865" />
</g>
<g
   transform="matrix(1.33,0,0,1.33,133.71896,155.34)"
   clip-path="url(#CLIPPATH_15)"
   id="g2874">
<clipPath
   id="CLIPPATH_15">
	<rect
   transform="translate(42.95,-48.88)"
   id="rect2869"
   x="-172.8"
   y="-172.8"
   rx="0"
   ry="0"
   width="345.60001"
   height="345.60001" />
</clipPath>
<path
   style="opacity:1;fill:none;fill-rule:nonzero;stroke:#7f7f7f;stroke-width:1.5;stroke-linecap:square;stroke-linejoin:miter;stroke-miterlimit:4;stroke-dasharray:none;stroke-dashoffset:0"
   vector-effect="non-scaling-stroke"
   transform="translate(-129.85,-221.68)"
   d="m 32.055107,255.08246 100.680353,-34.38638 94.90978,-32.4155"
   stroke-linecap="round"
   id="path2872" />
</g>
<g
   transform="matrix(1.33,0,0,1.33,258.29896,195.58)"
   clip-path="url(#CLIPPATH_16)"
   id="g2881">
<clipPath
   id="CLIPPATH_16">
	<rect
   transform="translate(-50.25,-79.13)"
   id="rect2876"
   x="-172.8"
   y="-172.8"
   rx="0"
   ry="0"
   width="345.60001"
   height="345.60001" />
</clipPath>
<path
   style="opacity:1;fill:none;fill-rule:nonzero;stroke:#bcbd22;stroke-width:1.5;stroke-linecap:square;stroke-linejoin:miter;stroke-miterlimit:4;stroke-dasharray:none;stroke-dashoffset:0"
   vector-effect="non-scaling-stroke"
   transform="translate(-223.05,-251.93)"
   d="m 227.64524,188.28058 -4.34264,60.16648 -4.84581,67.13783"
   stroke-linecap="round"
   id="path2879" />
</g>
<g
   transform="matrix(1.33,0,0,1.33,194.42896,174.95)"
   clip-path="url(#CLIPPATH_17)"
   id="g2888">
<clipPath
   id="CLIPPATH_17">
	<rect
   transform="translate(-2.47,-63.62)"
   id="rect2883"
   x="-172.8"
   y="-172.8"
   rx="0"
   ry="0"
   width="345.60001"
   height="345.60001" />
</clipPath>
<path
   style="opacity:1;fill:none;fill-rule:nonzero;stroke:#17becf;stroke-width:1.5;stroke-linecap:square;stroke-linejoin:miter;stroke-miterlimit:4;stroke-dasharray:none;stroke-dashoffset:0"
   vector-effect="non-scaling-stroke"
   transform="translate(-175.27,-236.42)"
   d="m 122.89808,284.56835 36.89777,-33.9179 67.84939,-62.36987"
   stroke-linecap="round"
   id="path2886" />
</g>
<g
   transform="matrix(1.33,0,0,1.33,130.82896,195.55)"
   clip-path="url(#CLIPPATH_18)"
   id="g2895">
<clipPath
   id="CLIPPATH_18">
	<rect
   transform="translate(45.12,-78.96)"
   id="rect2890"
   x="-172.8"
   y="-172.8"
   rx="0"
   ry="0"
   width="345.60001"
   height="345.60001" />
</clipPath>
<path
   style="opacity:1;fill:none;fill-rule:nonzero;stroke:#1f77b4;stroke-width:1.5;stroke-linecap:square;stroke-linejoin:miter;stroke-miterlimit:4;stroke-dasharray:none;stroke-dashoffset:0"
   vector-effect="non-scaling-stroke"
   transform="translate(-127.68,-251.76)"
   d="m 32.055107,255.08246 127.740743,-4.43201 63.50675,-2.20339"
   stroke-linecap="round"
   id="path2893" />
</g>
<g
   transform="matrix(1.33,0,0,1.33,194.88896,217.24)"
   clip-path="url(#CLIPPATH_19)"
   id="g2902">
<clipPath
   id="CLIPPATH_19">
	<rect
   transform="translate(-2.8,-95.34)"
   id="rect2897"
   x="-172.8"
   y="-172.8"
   rx="0"
   ry="0"
   width="345.60001"
   height="345.60001" />
</clipPath>
<path
   style="opacity:1;fill:none;fill-rule:nonzero;stroke:#ff7f0e;stroke-width:1.5;stroke-linecap:square;stroke-linejoin:miter;stroke-miterlimit:4;stroke-dasharray:none;stroke-dashoffset:0"
   vector-effect="non-scaling-stroke"
   transform="translate(-175.6,-268.14)"
   d="m 132.73546,220.69608 27.06039,29.95437 58.66094,64.93444"
   stroke-linecap="round"
   id="path2900" />
</g>
<g
   transform="matrix(1.33,0,0,1.33,88.07896,104.5)"
   clip-path="url(#CLIPPATH_20)"
   id="g2909">
<clipPath
   id="CLIPPATH_20">
	<rect
   transform="translate(77.26,-10.84)"
   id="rect2904"
   x="-172.8"
   y="-172.8"
   rx="0"
   ry="0"
   width="345.60001"
   height="345.60001" />
</clipPath>
<path
   style="opacity:1;fill:none;fill-rule:nonzero;stroke:#2ca02c;stroke-width:1.5;stroke-linecap:square;stroke-linejoin:miter;stroke-miterlimit:4;stroke-dasharray:none;stroke-dashoffset:0"
   vector-effect="non-scaling-stroke"
   transform="translate(-95.54,-183.64)"
   d="M 32.055107,255.08246 94.294613,185.04224 159.01982,112.20477"
   stroke-linecap="round"
   id="path2907" />
</g>
<g
   transform="matrix(1.33,0,0,1.33,212.46896,144.74)"
   clip-path="url(#CLIPPATH_21)"
   id="g2916">
<clipPath
   id="CLIPPATH_21">
	<rect
   transform="translate(-15.94,-41.09)"
   id="rect2911"
   x="-172.8"
   y="-172.8"
   rx="0"
   ry="0"
   width="345.60001"
   height="345.60001" />
</clipPath>
<path
   style="opacity:1;fill:none;fill-rule:nonzero;stroke:#d62728;stroke-width:1.5;stroke-linecap:square;stroke-linejoin:miter;stroke-miterlimit:4;stroke-dasharray:none;stroke-dashoffset:0"
   vector-effect="non-scaling-stroke"
   transform="translate(-188.74,-213.89)"
   d="M 218.45679,315.58489 188.56821,213.31278 159.01982,112.20477"
   stroke-linecap="round"
   id="path2914" />
</g>
<g
   transform="matrix(1.33,0,0,1.33,218.57896,60.079999)"
   clip-path="url(#CLIPPATH_22)"
   id="g2923">
<clipPath
   id="CLIPPATH_22">
	<rect
   transform="translate(-20.53,22.56)"
   id="rect2918"
   x="-172.8"
   y="-172.8"
   rx="0"
   ry="0"
   width="345.60001"
   height="345.60001" />
</clipPath>
<path
   style="opacity:1;fill:none;fill-rule:nonzero;stroke:#9467bd;stroke-width:1.5;stroke-linecap:square;stroke-linejoin:miter;stroke-miterlimit:4;stroke-dasharray:none;stroke-dashoffset:0"
   vector-effect="non-scaling-stroke"
   transform="translate(-193.33,-150.24)"
   d="M 227.64524,188.28058 195.01567,152.10855 159.01982,112.20477"
   stroke-linecap="round"
   id="path2921" />
</g>
<g
   transform="matrix(1.33,0,0,1.33,148.78896,124.11)"
   clip-path="url(#CLIPPATH_23)"
   id="g2930">
<clipPath
   id="CLIPPATH_23">
	<rect
   transform="translate(31.84,-25.59)"
   id="rect2925"
   x="-172.8"
   y="-172.8"
   rx="0"
   ry="0"
   width="345.60001"
   height="345.60001" />
</clipPath>
<path
   style="opacity:1;fill:none;fill-rule:nonzero;stroke:#8c564b;stroke-width:1.5;stroke-linecap:square;stroke-linejoin:miter;stroke-miterlimit:4;stroke-dasharray:none;stroke-dashoffset:0"
   vector-effect="non-scaling-stroke"
   transform="translate(-140.96,-198.39)"
   d="m 122.89808,284.56835 11.92705,-56.9128 24.19469,-115.45078"
   stroke-linecap="round"
   id="path2928" />
</g>
<g
   transform="matrix(1.33,0,0,1.33,169.20896,193.41)"
   clip-path="url(#CLIPPATH_24)"
   id="g2937">
<clipPath
   id="CLIPPATH_24">
	<rect
   transform="translate(16.42,-77.51)"
   id="rect2932"
   x="-172.8"
   y="-172.8"
   rx="0"
   ry="0"
   width="345.60001"
   height="345.60001" />
</clipPath>
<path
   style="opacity:1;fill:none;fill-rule:nonzero;stroke:#e377c2;stroke-width:1.5;stroke-linecap:square;stroke-linejoin:miter;stroke-miterlimit:4;stroke-dasharray:none;stroke-dashoffset:0"
   vector-effect="non-scaling-stroke"
   transform="translate(-156.38,-250.31)"
   d="m 94.294613,185.04224 40.530517,42.61331 83.63166,87.92934"
   stroke-linecap="round"
   id="path2935" />
</g>
<g
   transform="matrix(1.33,0,0,1.33,107.72896,172.08)"
   clip-path="url(#CLIPPATH_25)"
   id="g2944">
<clipPath
   id="CLIPPATH_25">
	<rect
   transform="translate(62.49,-61.4)"
   id="rect2939"
   x="-172.8"
   y="-172.8"
   rx="0"
   ry="0"
   width="345.60001"
   height="345.60001" />
</clipPath>
<path
   style="opacity:1;fill:none;fill-rule:nonzero;stroke:#7f7f7f;stroke-width:1.5;stroke-linecap:square;stroke-linejoin:miter;stroke-miterlimit:4;stroke-dasharray:none;stroke-dashoffset:0"
   vector-effect="non-scaling-stroke"
   transform="translate(-110.31,-234.2)"
   d="M 188.56821,213.31278 134.82513,227.65555 32.055107,255.08246"
   stroke-linecap="round"
   id="path2942" />
</g>
<g
   transform="matrix(1.33,0,0,1.33,155.36896,81.639999)"
   clip-path="url(#CLIPPATH_26)"
   id="g2951">
<clipPath
   id="CLIPPATH_26">
	<rect
   transform="translate(26.92,6.35)"
   id="rect2946"
   x="-172.8"
   y="-172.8"
   rx="0"
   ry="0"
   width="345.60001"
   height="345.60001" />
</clipPath>
<path
   style="opacity:1;fill:none;fill-rule:nonzero;stroke:#bcbd22;stroke-width:1.5;stroke-linecap:square;stroke-linejoin:miter;stroke-miterlimit:4;stroke-dasharray:none;stroke-dashoffset:0"
   vector-effect="non-scaling-stroke"
   transform="translate(-145.88,-166.45)"
   d="m 132.73546,220.69608 8.36255,-34.51725 17.92181,-73.97406"
   stroke-linecap="round"
   id="path2949" />
</g>
<g
   transform="matrix(1.33,0,0,1.33,175.31896,108.75)"
   clip-path="url(#CLIPPATH_27)"
   id="g2958">
<clipPath
   id="CLIPPATH_27">
	<rect
   transform="translate(11.83,-13.86)"
   id="rect2953"
   x="-172.8"
   y="-172.8"
   rx="0"
   ry="0"
   width="345.60001"
   height="345.60001" />
</clipPath>
<path
   style="opacity:1;fill:none;fill-rule:nonzero;stroke:#17becf;stroke-width:1.5;stroke-linecap:square;stroke-linejoin:miter;stroke-miterlimit:4;stroke-dasharray:none;stroke-dashoffset:0"
   vector-effect="non-scaling-stroke"
   transform="translate(-160.97,-186.66)"
   d="m 227.64524,188.28058 -86.54723,-2.10175 -46.803397,-1.13659"
   stroke-linecap="round"
   id="path2956" />
</g>
<g
   transform="matrix(1.33,0,0,1.33,112.01896,131.17)"
   clip-path="url(#CLIPPATH_28)"
   id="g2965">
<clipPath
   id="CLIPPATH_28">
	<rect
   transform="translate(59.26,-30.8)"
   id="rect2960"
   x="-172.8"
   y="-172.8"
   rx="0"
   ry="0"
   width="345.60001"
   height="345.60001" />
</clipPath>
<path
   style="opacity:1;fill:none;fill-rule:nonzero;stroke:#1f77b4;stroke-width:1.5;stroke-linecap:square;stroke-linejoin:miter;stroke-miterlimit:4;stroke-dasharray:none;stroke-dashoffset:0"
   vector-effect="non-scaling-stroke"
   transform="translate(-113.54,-203.6)"
   d="M 32.055107,255.08246 141.09801,186.17883 195.01567,152.10855"
   stroke-linecap="round"
   id="path2963" />
</g>
<g
   transform="matrix(1.33,0,0,1.33,236.51896,171.4)"
   clip-path="url(#CLIPPATH_29)"
   id="g2972">
<clipPath
   id="CLIPPATH_29">
	<rect
   transform="translate(-33.94,-61.05)"
   id="rect2967"
   x="-172.8"
   y="-172.8"
   rx="0"
   ry="0"
   width="345.60001"
   height="345.60001" />
</clipPath>
<path
   style="opacity:1;fill:none;fill-rule:nonzero;stroke:#ff7f0e;stroke-width:1.5;stroke-linecap:square;stroke-linejoin:miter;stroke-miterlimit:4;stroke-dasharray:none;stroke-dashoffset:0"
   vector-effect="non-scaling-stroke"
   transform="translate(-206.74,-233.85)"
   d="m 218.45679,315.58489 -15.94567,-111.20374 -7.49545,-52.2726"
   stroke-linecap="round"
   id="path2970" />
</g>
<g
   transform="matrix(1.33,0,0,1.33,238.31896,127.57)"
   clip-path="url(#CLIPPATH_30)"
   id="g2979">
<clipPath
   id="CLIPPATH_30">
	<rect
   transform="translate(-35.31,-28)"
   id="rect2974"
   x="-172.8"
   y="-172.8"
   rx="0"
   ry="0"
   width="345.60001"
   height="345.60001" />
</clipPath>
<path
   style="opacity:1;fill:none;fill-rule:nonzero;stroke:#2ca02c;stroke-width:1.5;stroke-linecap:square;stroke-linejoin:miter;stroke-miterlimit:4;stroke-dasharray:none;stroke-dashoffset:0"
   vector-effect="non-scaling-stroke"
   transform="translate(-208.11,-200.8)"
   d="m 227.64524,188.28058 -25.13412,16.10057 -13.94291,8.93163"
   stroke-linecap="round"
   id="path2977" />
</g>
<g
   transform="matrix(1.33,0,0,1.33,215.68896,100.09)"
   clip-path="url(#CLIPPATH_31)"
   id="g2986">
<clipPath
   id="CLIPPATH_31">
	<rect
   transform="translate(-18.36,-7.53)"
   id="rect2981"
   x="-172.8"
   y="-172.8"
   rx="0"
   ry="0"
   width="345.60001"
   height="345.60001" />
</clipPath>
<path
   style="opacity:1;fill:none;fill-rule:nonzero;stroke:#d62728;stroke-width:1.5;stroke-linecap:square;stroke-linejoin:miter;stroke-miterlimit:4;stroke-dasharray:none;stroke-dashoffset:0"
   vector-effect="non-scaling-stroke"
   transform="translate(-191.16,-180.33)"
   d="m 159.01982,112.20477 43.4913,92.17638 20.79148,44.06591"
   stroke-linecap="round"
   id="path2984" />
</g>
<g
   transform="matrix(1.33,0,0,1.33,116.99896,166.11)"
   clip-path="url(#CLIPPATH_32)"
   id="g2993">
<clipPath
   id="CLIPPATH_32">
	<rect
   transform="translate(55.52,-56.93)"
   id="rect2988"
   x="-172.8"
   y="-172.8"
   rx="0"
   ry="0"
   width="345.60001"
   height="345.60001" />
</clipPath>
<path
   style="opacity:1;fill:none;fill-rule:nonzero;stroke:#9467bd;stroke-width:1.5;stroke-linecap:square;stroke-linejoin:miter;stroke-miterlimit:4;stroke-dasharray:none;stroke-dashoffset:0"
   vector-effect="non-scaling-stroke"
   transform="translate(-117.28,-229.73)"
   d="m 32.055107,255.08246 127.552923,-37.94 42.90309,-12.76131"
   stroke-linecap="round"
   id="path2991" />
</g>
<g
   transform="matrix(1.33,0,0,1.33,200.47896,194.18)"
   clip-path="url(#CLIPPATH_33)"
   id="g3000">
<clipPath
   id="CLIPPATH_33">
	<rect
   transform="translate(-6.98,-78.08)"
   id="rect2995"
   x="-172.8"
   y="-172.8"
   rx="0"
   ry="0"
   width="345.60001"
   height="345.60001" />
</clipPath>
<path
   style="opacity:1;fill:none;fill-rule:nonzero;stroke:#8c564b;stroke-width:1.5;stroke-linecap:square;stroke-linejoin:miter;stroke-miterlimit:4;stroke-dasharray:none;stroke-dashoffset:0"
   vector-effect="non-scaling-stroke"
   transform="translate(-179.78,-250.88)"
   d="M 218.45679,315.58489 159.60803,217.14246 141.09801,186.17883"
   stroke-linecap="round"
   id="path2998" />
</g>
<g
   transform="matrix(1.33,0,0,1.33,173.45896,101.56)"
   clip-path="url(#CLIPPATH_34)"
   id="g3007">
<clipPath
   id="CLIPPATH_34">
	<rect
   transform="translate(13.39,-8.63)"
   id="rect3002"
   x="-172.8"
   y="-172.8"
   rx="0"
   ry="0"
   width="345.60001"
   height="345.60001" />
</clipPath>
<path
   style="opacity:1;fill:none;fill-rule:nonzero;stroke:#e377c2;stroke-width:1.5;stroke-linecap:square;stroke-linejoin:miter;stroke-miterlimit:4;stroke-dasharray:none;stroke-dashoffset:0"
   vector-effect="non-scaling-stroke"
   transform="translate(-159.41,-181.43)"
   d="m 159.01982,112.20477 0.58821,104.93769 0.18782,33.50799"
   stroke-linecap="round"
   id="path3005" />
</g>
<g
   transform="matrix(1.33,0,0,1.33,172.42896,148.76)"
   clip-path="url(#CLIPPATH_35)"
   id="g3014">
<clipPath
   id="CLIPPATH_35">
	<rect
   transform="translate(14,-43.94)"
   id="rect3009"
   x="-172.8"
   y="-172.8"
   rx="0"
   ry="0"
   width="345.60001"
   height="345.60001" />
</clipPath>
<path
   style="opacity:1;fill:none;fill-rule:nonzero;stroke:#7f7f7f;stroke-width:1.5;stroke-linecap:square;stroke-linejoin:miter;stroke-miterlimit:4;stroke-dasharray:none;stroke-dashoffset:0"
   vector-effect="non-scaling-stroke"
   transform="translate(-158.8,-216.74)"
   d="m 94.294613,185.04224 65.313417,32.10022 63.69457,31.3046"
   stroke-linecap="round"
   id="path3012" />
</g>
<g
   transform="matrix(1.33,0,0,1.33,172.72896,150.78)"
   clip-path="url(#CLIPPATH_36)"
   id="g3021">
<clipPath
   id="CLIPPATH_36">
	<rect
   transform="translate(13.84,-45.54)"
   id="rect3016"
   x="-172.8"
   y="-172.8"
   rx="0"
   ry="0"
   width="345.60001"
   height="345.60001" />
</clipPath>
<path
   style="opacity:1;fill:none;fill-rule:nonzero;stroke:#bcbd22;stroke-width:1.5;stroke-linecap:square;stroke-linejoin:miter;stroke-miterlimit:4;stroke-dasharray:none;stroke-dashoffset:0"
   vector-effect="non-scaling-stroke"
   transform="translate(-158.96,-218.34)"
   d="m 122.89808,284.56835 36.70995,-67.42589 35.40764,-65.03391"
   stroke-linecap="round"
   id="path3019" />
</g>
<g
   transform="matrix(1.33,0,0,1.33,175.01896,149.21)"
   clip-path="url(#CLIPPATH_37)"
   id="g3028">
<clipPath
   id="CLIPPATH_37">
	<rect
   transform="translate(12.15,-44.2)"
   id="rect3023"
   x="-172.8"
   y="-172.8"
   rx="0"
   ry="0"
   width="345.60001"
   height="345.60001" />
</clipPath>
<path
   style="opacity:1;fill:none;fill-rule:nonzero;stroke:#17becf;stroke-width:1.5;stroke-linecap:square;stroke-linejoin:miter;stroke-miterlimit:4;stroke-dasharray:none;stroke-dashoffset:0"
   vector-effect="non-scaling-stroke"
   transform="translate(-160.65,-217)"
   d="m 188.56821,213.31278 -28.96018,3.82968 -26.87257,3.55362"
   stroke-linecap="round"
   id="path3026" />
</g>
<g
   transform="matrix(1.33,0,0,1.33,202.40896,137.1)"
   clip-path="url(#CLIPPATH_38)"
   id="g3035">
<clipPath
   id="CLIPPATH_38">
	<rect
   transform="translate(-8.44,-35.17)"
   id="rect3030"
   x="-172.8"
   y="-172.8"
   rx="0"
   ry="0"
   width="345.60001"
   height="345.60001" />
</clipPath>
<path
   style="opacity:1;fill:none;fill-rule:nonzero;stroke:#1f77b4;stroke-width:1.5;stroke-linecap:square;stroke-linejoin:miter;stroke-miterlimit:4;stroke-dasharray:none;stroke-dashoffset:0"
   vector-effect="non-scaling-stroke"
   transform="translate(-181.24,-207.97)"
   d="m 134.82513,227.65555 24.7829,-10.51309 68.03721,-28.86188"
   stroke-linecap="round"
   id="path3033" />
</g>
<g
   transform="matrix(1.33,0,0,1.33,264.42896,110.91)"
   clip-path="url(#CLIPPATH_39)"
   id="g3042">
<clipPath
   id="CLIPPATH_39">
	<rect
   transform="translate(-54.85,-15.48)"
   id="rect3037"
   x="-172.8"
   y="-172.8"
   rx="0"
   ry="0"
   width="345.60001"
   height="345.60001" />
</clipPath>
<path
   style="opacity:1;fill:#1f77b4;fill-opacity:0.3;fill-rule:nonzero;stroke:#1f77b4;stroke-width:1;stroke-linecap:butt;stroke-linejoin:miter;stroke-miterlimit:4;stroke-dasharray:none;stroke-dashoffset:0;stroke-opacity:0.3"
   vector-effect="non-scaling-stroke"
   d="m 0,2.236068 c 0.593012,0 1.161816,-0.235606 1.581139,-0.654929 C 2.000462,1.161816 2.236068,0.593012 2.236068,0 c 0,-0.593012 -0.235606,-1.161816 -0.654929,-1.581139 C 1.161816,-2.000462 0.593012,-2.236068 0,-2.236068 c -0.593012,0 -1.161816,0.235606 -1.581139,0.654929 C -2.000462,-1.161816 -2.236068,-0.593012 -2.236068,0 c 0,0.593012 0.235606,1.161816 0.654929,1.581139 C -1.161816,2.000462 -0.593012,2.236068 0,2.236068 Z"
   stroke-linecap="round"
   id="path3040" />
</g>
<g
   transform="matrix(1.33,0,0,1.33,137.87896,154.13)"
   clip-path="url(#CLIPPATH_40)"
   id="g3049">
<clipPath
   id="CLIPPATH_40">
	<rect
   transform="translate(40.06,-47.9)"
   id="rect3044"
   x="-172.8"
   y="-172.8"
   rx="0"
   ry="0"
   width="345.60001"
   height="345.60001" />
</clipPath>
<path
   style="opacity:1;fill:#1f77b4;fill-opacity:0.48;fill-rule:nonzero;stroke:#1f77b4;stroke-width:1;stroke-linecap:butt;stroke-linejoin:miter;stroke-miterlimit:4;stroke-dasharray:none;stroke-dashoffset:0;stroke-opacity:0.48"
   vector-effect="non-scaling-stroke"
   d="m 0,2.236068 c 0.593012,0 1.161816,-0.235606 1.581139,-0.654929 C 2.000462,1.161816 2.236068,0.593012 2.236068,0 c 0,-0.593012 -0.235606,-1.161816 -0.654929,-1.581139 C 1.161816,-2.000462 0.593012,-2.236068 0,-2.236068 c -0.593012,0 -1.161816,0.235606 -1.581139,0.654929 C -2.000462,-1.161816 -2.236068,-0.593012 -2.236068,0 c 0,0.593012 0.235606,1.161816 0.654929,1.581139 C -1.161816,2.000462 -0.593012,2.236068 0,2.236068 Z"
   stroke-linecap="round"
   id="path3047" />
</g>
<g
   transform="matrix(1.33,0,0,1.33,220.91896,62.679999)"
   clip-path="url(#CLIPPATH_41)"
   id="g3056">
<clipPath
   id="CLIPPATH_41">
	<rect
   transform="translate(-22.22,20.69)"
   id="rect3051"
   x="-172.8"
   y="-172.8"
   rx="0"
   ry="0"
   width="345.60001"
   height="345.60001" />
</clipPath>
<path
   style="opacity:1;fill:#1f77b4;fill-opacity:0.6;fill-rule:nonzero;stroke:#1f77b4;stroke-width:1;stroke-linecap:butt;stroke-linejoin:miter;stroke-miterlimit:4;stroke-dasharray:none;stroke-dashoffset:0;stroke-opacity:0.6"
   vector-effect="non-scaling-stroke"
   d="m 0,2.236068 c 0.593012,0 1.161816,-0.235606 1.581139,-0.654929 C 2.000462,1.161816 2.236068,0.593012 2.236068,0 c 0,-0.593012 -0.235606,-1.161816 -0.654929,-1.581139 C 1.161816,-2.000462 0.593012,-2.236068 0,-2.236068 c -0.593012,0 -1.161816,0.235606 -1.581139,0.654929 C -2.000462,-1.161816 -2.236068,-0.593012 -2.236068,0 c 0,0.593012 0.235606,1.161816 0.654929,1.581139 C -1.161816,2.000462 -0.593012,2.236068 0,2.236068 Z"
   stroke-linecap="round"
   id="path3054" />
</g>
<g
   transform="matrix(1.33,0,0,1.33,149.02896,108.11)"
   clip-path="url(#CLIPPATH_42)"
   id="g3063">
<clipPath
   id="CLIPPATH_42">
	<rect
   transform="translate(31.7,-13.38)"
   id="rect3058"
   x="-172.8"
   y="-172.8"
   rx="0"
   ry="0"
   width="345.60001"
   height="345.60001" />
</clipPath>
<path
   style="opacity:1;fill:#1f77b4;fill-opacity:0.62;fill-rule:nonzero;stroke:#1f77b4;stroke-width:1;stroke-linecap:butt;stroke-linejoin:miter;stroke-miterlimit:4;stroke-dasharray:none;stroke-dashoffset:0;stroke-opacity:0.62"
   vector-effect="non-scaling-stroke"
   d="m 0,2.236068 c 0.593012,0 1.161816,-0.235606 1.581139,-0.654929 C 2.000462,1.161816 2.236068,0.593012 2.236068,0 c 0,-0.593012 -0.235606,-1.161816 -0.654929,-1.581139 C 1.161816,-2.000462 0.593012,-2.236068 0,-2.236068 c -0.593012,0 -1.161816,0.235606 -1.581139,0.654929 C -2.000462,-1.161816 -2.236068,-0.593012 -2.236068,0 c 0,0.593012 0.235606,1.161816 0.654929,1.581139 C -1.161816,2.000462 -0.593012,2.236068 0,2.236068 Z"
   stroke-linecap="round"
   id="path3061" />
</g>
<g
   transform="matrix(1.33,0,0,1.33,258.63896,191.13)"
   clip-path="url(#CLIPPATH_43)"
   id="g3070">
<clipPath
   id="CLIPPATH_43">
	<rect
   transform="translate(-50.5,-75.65)"
   id="rect3065"
   x="-172.8"
   y="-172.8"
   rx="0"
   ry="0"
   width="345.60001"
   height="345.60001" />
</clipPath>
<path
   style="opacity:1;fill:#1f77b4;fill-opacity:0.63;fill-rule:nonzero;stroke:#1f77b4;stroke-width:1;stroke-linecap:butt;stroke-linejoin:miter;stroke-miterlimit:4;stroke-dasharray:none;stroke-dashoffset:0;stroke-opacity:0.63"
   vector-effect="non-scaling-stroke"
   d="m 0,2.236068 c 0.593012,0 1.161816,-0.235606 1.581139,-0.654929 C 2.000462,1.161816 2.236068,0.593012 2.236068,0 c 0,-0.593012 -0.235606,-1.161816 -0.654929,-1.581139 C 1.161816,-2.000462 0.593012,-2.236068 0,-2.236068 c -0.593012,0 -1.161816,0.235606 -1.581139,0.654929 C -2.000462,-1.161816 -2.236068,-0.593012 -2.236068,0 c 0,0.593012 0.235606,1.161816 0.654929,1.581139 C -1.161816,2.000462 -0.593012,2.236068 0,2.236068 Z"
   stroke-linecap="round"
   id="path3068" />
</g>
<g
   transform="matrix(1.33,0,0,1.33,173.95896,194.07)"
   clip-path="url(#CLIPPATH_44)"
   id="g3077">
<clipPath
   id="CLIPPATH_44">
	<rect
   transform="translate(13,-77.85)"
   id="rect3072"
   x="-172.8"
   y="-172.8"
   rx="0"
   ry="0"
   width="345.60001"
   height="345.60001" />
</clipPath>
<path
   style="opacity:1;fill:#1f77b4;fill-opacity:0.64;fill-rule:nonzero;stroke:#1f77b4;stroke-width:1;stroke-linecap:butt;stroke-linejoin:miter;stroke-miterlimit:4;stroke-dasharray:none;stroke-dashoffset:0;stroke-opacity:0.64"
   vector-effect="non-scaling-stroke"
   d="m 0,2.236068 c 0.593012,0 1.161816,-0.235606 1.581139,-0.654929 C 2.000462,1.161816 2.236068,0.593012 2.236068,0 c 0,-0.593012 -0.235606,-1.161816 -0.654929,-1.581139 C 1.161816,-2.000462 0.593012,-2.236068 0,-2.236068 c -0.593012,0 -1.161816,0.235606 -1.581139,0.654929 C -2.000462,-1.161816 -2.236068,-0.593012 -2.236068,0 c 0,0.593012 0.235606,1.161816 0.654929,1.581139 C -1.161816,2.000462 -0.593012,2.236068 0,2.236068 Z"
   stroke-linecap="round"
   id="path3075" />
</g>
<g
   transform="matrix(1.33,0,0,1.33,3.63896,199.98)"
   clip-path="url(#CLIPPATH_45)"
   id="g3084">
<clipPath
   id="CLIPPATH_45">
	<rect
   transform="translate(140.74,-82.28)"
   id="rect3079"
   x="-172.8"
   y="-172.8"
   rx="0"
   ry="0"
   width="345.60001"
   height="345.60001" />
</clipPath>
<path
   style="opacity:1;fill:#1f77b4;fill-opacity:0.67;fill-rule:nonzero;stroke:#1f77b4;stroke-width:1;stroke-linecap:butt;stroke-linejoin:miter;stroke-miterlimit:4;stroke-dasharray:none;stroke-dashoffset:0;stroke-opacity:0.67"
   vector-effect="non-scaling-stroke"
   d="m 0,2.236068 c 0.593012,0 1.161816,-0.235606 1.581139,-0.654929 C 2.000462,1.161816 2.236068,0.593012 2.236068,0 c 0,-0.593012 -0.235606,-1.161816 -0.654929,-1.581139 C 1.161816,-2.000462 0.593012,-2.236068 0,-2.236068 c -0.593012,0 -1.161816,0.235606 -1.581139,0.654929 C -2.000462,-1.161816 -2.236068,-0.593012 -2.236068,0 c 0,0.593012 0.235606,1.161816 0.654929,1.581139 C -1.161816,2.000462 -0.593012,2.236068 0,2.236068 Z"
   stroke-linecap="round"
   id="path3082" />
</g>
<g
   transform="matrix(1.33,0,0,1.33,173.70896,149.39)"
   clip-path="url(#CLIPPATH_46)"
   id="g3091">
<clipPath
   id="CLIPPATH_46">
	<rect
   transform="translate(13.19,-44.34)"
   id="rect3086"
   x="-172.8"
   y="-172.8"
   rx="0"
   ry="0"
   width="345.60001"
   height="345.60001" />
</clipPath>
<path
   style="opacity:1;fill:#1f77b4;fill-opacity:0.71;fill-rule:nonzero;stroke:#1f77b4;stroke-width:1;stroke-linecap:butt;stroke-linejoin:miter;stroke-miterlimit:4;stroke-dasharray:none;stroke-dashoffset:0;stroke-opacity:0.71"
   vector-effect="non-scaling-stroke"
   d="m 0,2.236068 c 0.593012,0 1.161816,-0.235606 1.581139,-0.654929 C 2.000462,1.161816 2.236068,0.593012 2.236068,0 c 0,-0.593012 -0.235606,-1.161816 -0.654929,-1.581139 C 1.161816,-2.000462 0.593012,-2.236068 0,-2.236068 c -0.593012,0 -1.161816,0.235606 -1.581139,0.654929 C -2.000462,-1.161816 -2.236068,-0.593012 -2.236068,0 c 0,0.593012 0.235606,1.161816 0.654929,1.581139 C -1.161816,2.000462 -0.593012,2.236068 0,2.236068 Z"
   stroke-linecap="round"
   id="path3089" />
</g>
<g
   transform="matrix(1.33,0,0,1.33,230.90896,132.38)"
   clip-path="url(#CLIPPATH_47)"
   id="g3098">
<clipPath
   id="CLIPPATH_47">
	<rect
   transform="translate(-29.71,-31.58)"
   id="rect3093"
   x="-172.8"
   y="-172.8"
   rx="0"
   ry="0"
   width="345.60001"
   height="345.60001" />
</clipPath>
<path
   style="opacity:1;fill:#1f77b4;fill-opacity:0.73;fill-rule:nonzero;stroke:#1f77b4;stroke-width:1;stroke-linecap:butt;stroke-linejoin:miter;stroke-miterlimit:4;stroke-dasharray:none;stroke-dashoffset:0;stroke-opacity:0.73"
   vector-effect="non-scaling-stroke"
   d="m 0,2.236068 c 0.593012,0 1.161816,-0.235606 1.581139,-0.654929 C 2.000462,1.161816 2.236068,0.593012 2.236068,0 c 0,-0.593012 -0.235606,-1.161816 -0.654929,-1.581139 C 1.161816,-2.000462 0.593012,-2.236068 0,-2.236068 c -0.593012,0 -1.161816,0.235606 -1.581139,0.654929 C -2.000462,-1.161816 -2.236068,-0.593012 -2.236068,0 c 0,0.593012 0.235606,1.161816 0.654929,1.581139 C -1.161816,2.000462 -0.593012,2.236068 0,2.236068 Z"
   stroke-linecap="round"
   id="path3096" />
</g>
<g
   transform="matrix(1.33,0,0,1.33,86.61896,106.59)"
   clip-path="url(#CLIPPATH_48)"
   id="g3105">
<clipPath
   id="CLIPPATH_48">
	<rect
   transform="translate(78.51,-12.24)"
   id="rect3100"
   x="-172.8"
   y="-172.8"
   rx="0"
   ry="0"
   width="345.60001"
   height="345.60001" />
</clipPath>
<path
   style="opacity:1;fill:#1f77b4;fill-opacity:0.79;fill-rule:nonzero;stroke:#1f77b4;stroke-width:1;stroke-linecap:butt;stroke-linejoin:miter;stroke-miterlimit:4;stroke-dasharray:none;stroke-dashoffset:0;stroke-opacity:0.79"
   vector-effect="non-scaling-stroke"
   d="m 0,2.236068 c 0.593012,0 1.161816,-0.235606 1.581139,-0.654929 C 2.000462,1.161816 2.236068,0.593012 2.236068,0 c 0,-0.593012 -0.235606,-1.161816 -0.654929,-1.581139 C 1.161816,-2.000462 0.593012,-2.236068 0,-2.236068 c -0.593012,0 -1.161816,0.235606 -1.581139,0.654929 C -2.000462,-1.161816 -2.236068,-0.593012 -2.236068,0 c 0,0.593012 0.235606,1.161816 0.654929,1.581139 C -1.161816,2.000462 -0.593012,2.236068 0,2.236068 Z"
   stroke-linecap="round"
   id="path3103" />
</g>
<g
   transform="matrix(1.33,0,0,1.33,124.75896,239.29)"
   clip-path="url(#CLIPPATH_49)"
   id="g3112">
<clipPath
   id="CLIPPATH_49">
	<rect
   transform="translate(49.9,-111.77)"
   id="rect3107"
   x="-172.8"
   y="-172.8"
   rx="0"
   ry="0"
   width="345.60001"
   height="345.60001" />
</clipPath>
<path
   style="opacity:1;fill:#1f77b4;fill-opacity:0.83;fill-rule:nonzero;stroke:#1f77b4;stroke-width:1;stroke-linecap:butt;stroke-linejoin:miter;stroke-miterlimit:4;stroke-dasharray:none;stroke-dashoffset:0;stroke-opacity:0.83"
   vector-effect="non-scaling-stroke"
   d="m 0,2.236068 c 0.593012,0 1.161816,-0.235606 1.581139,-0.654929 C 2.000462,1.161816 2.236068,0.593012 2.236068,0 c 0,-0.593012 -0.235606,-1.161816 -0.654929,-1.581139 C 1.161816,-2.000462 0.593012,-2.236068 0,-2.236068 c -0.593012,0 -1.161816,0.235606 -1.581139,0.654929 C -2.000462,-1.161816 -2.236068,-0.593012 -2.236068,0 c 0,0.593012 0.235606,1.161816 0.654929,1.581139 C -1.161816,2.000462 -0.593012,2.236068 0,2.236068 Z"
   stroke-linecap="round"
   id="path3110" />
</g>
<g
   transform="matrix(1.33,0,0,1.33,140.66896,163.41)"
   clip-path="url(#CLIPPATH_50)"
   id="g3119">
<clipPath
   id="CLIPPATH_50">
	<rect
   transform="translate(37.97,-54.86)"
   id="rect3114"
   x="-172.8"
   y="-172.8"
   rx="0"
   ry="0"
   width="345.60001"
   height="345.60001" />
</clipPath>
<path
   style="opacity:1;fill:#1f77b4;fill-opacity:0.86;fill-rule:nonzero;stroke:#1f77b4;stroke-width:1;stroke-linecap:butt;stroke-linejoin:miter;stroke-miterlimit:4;stroke-dasharray:none;stroke-dashoffset:0;stroke-opacity:0.86"
   vector-effect="non-scaling-stroke"
   d="m 0,2.236068 c 0.593012,0 1.161816,-0.235606 1.581139,-0.654929 C 2.000462,1.161816 2.236068,0.593012 2.236068,0 c 0,-0.593012 -0.235606,-1.161816 -0.654929,-1.581139 C 1.161816,-2.000462 0.593012,-2.236068 0,-2.236068 c -0.593012,0 -1.161816,0.235606 -1.581139,0.654929 C -2.000462,-1.161816 -2.236068,-0.593012 -2.236068,0 c 0,0.593012 0.235606,1.161816 0.654929,1.581139 C -1.161816,2.000462 -0.593012,2.236068 0,2.236068 Z"
   stroke-linecap="round"
   id="path3117" />
</g>
<g
   transform="matrix(1.33,0,0,1.33,172.92896,9.4699988)"
   clip-path="url(#CLIPPATH_51)"
   id="g3126">
<clipPath
   id="CLIPPATH_51">
	<rect
   transform="translate(13.78,60.6)"
   id="rect3121"
   x="-172.8"
   y="-172.8"
   rx="0"
   ry="0"
   width="345.60001"
   height="345.60001" />
</clipPath>
<path
   style="opacity:1;fill:#1f77b4;fill-opacity:0.92;fill-rule:nonzero;stroke:#1f77b4;stroke-width:1;stroke-linecap:butt;stroke-linejoin:miter;stroke-miterlimit:4;stroke-dasharray:none;stroke-dashoffset:0;stroke-opacity:0.92"
   vector-effect="non-scaling-stroke"
   d="m 0,2.236068 c 0.593012,0 1.161816,-0.235606 1.581139,-0.654929 C 2.000462,1.161816 2.236068,0.593012 2.236068,0 c 0,-0.593012 -0.235606,-1.161816 -0.654929,-1.581139 C 1.161816,-2.000462 0.593012,-2.236068 0,-2.236068 c -0.593012,0 -1.161816,0.235606 -1.581139,0.654929 C -2.000462,-1.161816 -2.236068,-0.593012 -2.236068,0 c 0,0.593012 0.235606,1.161816 0.654929,1.581139 C -1.161816,2.000462 -0.593012,2.236068 0,2.236068 Z"
   stroke-linecap="round"
   id="path3124" />
</g>
<g
   transform="matrix(1.33,0,0,1.33,212.31896,144.29)"
   clip-path="url(#CLIPPATH_52)"
   id="g3133">
<clipPath
   id="CLIPPATH_52">
	<rect
   transform="translate(-15.77,-40.51)"
   id="rect3128"
   x="-172.8"
   y="-172.8"
   rx="0"
   ry="0"
   width="345.60001"
   height="345.60001" />
</clipPath>
<path
   style="opacity:1;fill:#1f77b4;fill-opacity:0.96;fill-rule:nonzero;stroke:#1f77b4;stroke-width:1;stroke-linecap:butt;stroke-linejoin:miter;stroke-miterlimit:4;stroke-dasharray:none;stroke-dashoffset:0;stroke-opacity:0.96"
   vector-effect="non-scaling-stroke"
   d="m 0,2.236068 c 0.593012,0 1.161816,-0.235606 1.581139,-0.654929 C 2.000462,1.161816 2.236068,0.593012 2.236068,0 c 0,-0.593012 -0.235606,-1.161816 -0.654929,-1.581139 C 1.161816,-2.000462 0.593012,-2.236068 0,-2.236068 c -0.593012,0 -1.161816,0.235606 -1.581139,0.654929 C -2.000462,-1.161816 -2.236068,-0.593012 -2.236068,0 c 0,0.593012 0.235606,1.161816 0.654929,1.581139 C -1.161816,2.000462 -0.593012,2.236068 0,2.236068 Z"
   stroke-linecap="round"
   id="path3131" />
</g>
<g
   transform="matrix(1.33,0,0,1.33,252.16896,280.65)"
   clip-path="url(#CLIPPATH_53)"
   id="g3140">
<clipPath
   id="CLIPPATH_53">
	<rect
   transform="translate(-45.66,-142.78)"
   id="rect3135"
   x="-172.8"
   y="-172.8"
   rx="0"
   ry="0"
   width="345.60001"
   height="345.60001" />
</clipPath>
<path
   style="opacity:1;fill:#1f77b4;fill-rule:nonzero;stroke:#1f77b4;stroke-width:1;stroke-linecap:butt;stroke-linejoin:miter;stroke-miterlimit:4;stroke-dasharray:none;stroke-dashoffset:0"
   vector-effect="non-scaling-stroke"
   d="m 0,2.236068 c 0.593012,0 1.161816,-0.235606 1.581139,-0.654929 C 2.000462,1.161816 2.236068,0.593012 2.236068,0 c 0,-0.593012 -0.235606,-1.161816 -0.654929,-1.581139 C 1.161816,-2.000462 0.593012,-2.236068 0,-2.236068 c -0.593012,0 -1.161816,0.235606 -1.581139,0.654929 C -2.000462,-1.161816 -2.236068,-0.593012 -2.236068,0 c 0,0.593012 0.235606,1.161816 0.654929,1.581139 C -1.161816,2.000462 -0.593012,2.236068 0,2.236068 Z"
   stroke-linecap="round"
   id="path3138" />
</g>
<g
   transform="matrix(0,0,0,0,3.95896,190.5)"
   id="g3144">
<path
   style="opacity:1;fill:#000000;fill-rule:nonzero;stroke:none;stroke-linecap:butt;stroke-linejoin:miter;stroke-miterlimit:4;stroke-dasharray:none;stroke-dashoffset:0"
   vector-effect="non-scaling-stroke"
   transform="translate(-2187.5,-2333)"
   d="M 2188,4044 1331,1722 h 1716 z m -357,622 h 716 L 4325,0 H 3669 L 3244,1197 H 1141 L 716,0 H 50 Z"
   stroke-linecap="round"
   id="path3142" />
</g>
<g
   transform="matrix(0,0,0,0,126.24896,229.81)"
   id="g3148">
<path
   style="opacity:1;fill:#000000;fill-rule:nonzero;stroke:none;stroke-linecap:butt;stroke-linejoin:miter;stroke-miterlimit:4;stroke-dasharray:none;stroke-dashoffset:0"
   vector-effect="non-scaling-stroke"
   transform="translate(-2283,-2333)"
   d="M 1259,2228 V 519 h 1013 q 509,0 754,211 246,211 246,645 0,438 -246,645 -245,208 -754,208 z m 0,1919 V 2741 h 935 q 462,0 688,173 227,174 227,530 0,353 -227,528 -226,175 -688,175 z m -631,519 h 1613 q 722,0 1112,-300 391,-300 391,-853 0,-429 -200,-682 -200,-253 -588,-315 466,-100 724,-418 258,-317 258,-792 0,-625 -425,-966 Q 3088,0 2303,0 H 628 Z"
   stroke-linecap="round"
   id="path3146" />
</g>
<g
   transform="matrix(0,0,0,0,265.36896,101.26)"
   id="g3152">
<path
   style="opacity:1;fill:#000000;fill-rule:nonzero;stroke:none;stroke-linecap:butt;stroke-linejoin:miter;stroke-miterlimit:4;stroke-dasharray:none;stroke-dashoffset:0"
   vector-effect="non-scaling-stroke"
   transform="translate(-2240.5,-2329.5)"
   d="m 4122,4306 v -665 q -319,297 -680,443 -361,147 -767,147 -800,0 -1225,-489 -425,-489 -425,-1414 0,-922 425,-1411 425,-489 1225,-489 406,0 767,147 361,147 680,444 V 359 Q 3791,134 3420,21 3050,-91 2638,-91 1578,-91 968,557 359,1206 359,2328 q 0,1125 609,1773 610,649 1670,649 418,0 788,-111 371,-111 696,-333 z"
   stroke-linecap="round"
   id="path3150" />
</g>
<g
   transform="matrix(0,0,0,0,253.68896,271.17)"
   id="g3156">
<path
   style="opacity:1;fill:#000000;fill-rule:nonzero;stroke:none;stroke-linecap:butt;stroke-linejoin:miter;stroke-miterlimit:4;stroke-dasharray:none;stroke-dashoffset:0"
   vector-effect="non-scaling-stroke"
   transform="translate(-2589,-2333)"
   d="M 1259,4147 V 519 h 763 q 966,0 1414,437 448,438 448,1382 0,937 -448,1373 -448,436 -1414,436 z m -631,519 h 1297 q 1356,0 1990,-564 635,-564 635,-1764 Q 4550,1131 3912,565 3275,0 1925,0 H 628 Z"
   stroke-linecap="round"
   id="path3154" />
</g>
<g
   transform="matrix(0,0,0,0,260.10896,181.65)"
   id="g3160">
<path
   style="opacity:1;fill:#000000;fill-rule:nonzero;stroke:none;stroke-linecap:butt;stroke-linejoin:miter;stroke-miterlimit:4;stroke-dasharray:none;stroke-dashoffset:0"
   vector-effect="non-scaling-stroke"
   transform="translate(-2131,-2333)"
   d="M 628,4666 H 3578 V 4134 H 1259 V 2753 H 3481 V 2222 H 1259 V 531 H 3634 V 0 H 628 Z"
   stroke-linecap="round"
   id="path3158" />
</g>
<g
   transform="matrix(0,0,0,0,139.32896,144.65)"
   id="g3164">
<path
   style="opacity:1;fill:#000000;fill-rule:nonzero;stroke:none;stroke-linecap:butt;stroke-linejoin:miter;stroke-miterlimit:4;stroke-dasharray:none;stroke-dashoffset:0"
   vector-effect="non-scaling-stroke"
   transform="translate(-1968.5,-2333)"
   d="M 628,4666 H 3309 V 4134 H 1259 V 2759 H 3109 V 2228 H 1259 V 0 H 628 Z"
   stroke-linecap="round"
   id="path3162" />
</g>
<g
   transform="matrix(0,0,0,0,174.91896,184.42)"
   id="g3168">
<path
   style="opacity:1;fill:#000000;fill-rule:nonzero;stroke:none;stroke-linecap:butt;stroke-linejoin:miter;stroke-miterlimit:4;stroke-dasharray:none;stroke-dashoffset:0"
   vector-effect="non-scaling-stroke"
   transform="translate(-2396.5,-2329.5)"
   d="M 3809,666 V 1919 H 2778 v 519 H 4434 V 434 Q 4069,175 3628,42 3188,-91 2688,-91 1594,-91 976,548 359,1188 359,2328 q 0,1144 617,1783 618,639 1712,639 456,0 867,-113 411,-112 758,-331 v -672 q -350,297 -744,447 -394,150 -828,150 -857,0 -1287,-478 -429,-478 -429,-1425 0,-944 429,-1422 430,-478 1287,-478 334,0 596,58 263,58 472,180 z"
   stroke-linecap="round"
   id="path3166" />
</g>

<g
   transform="matrix(0,0,0,0,142.01896,153.93)"
   id="g3176">
<path
   style="opacity:1;fill:#000000;fill-rule:nonzero;stroke:none;stroke-linecap:butt;stroke-linejoin:miter;stroke-miterlimit:4;stroke-dasharray:none;stroke-dashoffset:0"
   vector-effect="non-scaling-stroke"
   transform="translate(-943.5,-2333)"
   d="m 628,4666 h 631 V 0 H 628 Z"
   stroke-linecap="round"
   id="path3174" />
</g>
<g
   transform="matrix(0,0,0,0,86.02896,97.179999)"
   id="g3180">
<path
   style="opacity:1;fill:#000000;fill-rule:nonzero;stroke:none;stroke-linecap:butt;stroke-linejoin:miter;stroke-miterlimit:4;stroke-dasharray:none;stroke-dashoffset:0"
   vector-effect="non-scaling-stroke"
   transform="translate(-464,-1692.5)"
   d="m 628,4666 h 631 V 325 q 0,-844 -320,-1225 -320,-381 -1030,-381 h -240 v 531 h 197 q 418,0 590,235 172,234 172,840 z"
   stroke-linecap="round"
   id="path3178" />
</g>
<g
   transform="matrix(0,0,0,0,213.82896,134.81)"
   id="g3184">
<path
   style="opacity:1;fill:#000000;fill-rule:nonzero;stroke:none;stroke-linecap:butt;stroke-linejoin:miter;stroke-miterlimit:4;stroke-dasharray:none;stroke-dashoffset:0"
   vector-effect="non-scaling-stroke"
   transform="translate(-2479.5,-2333)"
   d="m 628,4666 h 631 V 2694 l 2094,1972 h 813 L 1850,2491 4331,0 H 3500 L 1259,2247 V 0 H 628 Z"
   stroke-linecap="round"
   id="path3182" />
</g>
<g
   transform="matrix(0,0,0,0,150.49896,98.629999)"
   id="g3188">
<path
   style="opacity:1;fill:#000000;fill-rule:nonzero;stroke:none;stroke-linecap:butt;stroke-linejoin:miter;stroke-miterlimit:4;stroke-dasharray:none;stroke-dashoffset:0"
   vector-effect="non-scaling-stroke"
   transform="translate(-2079.5,-2333)"
   d="m 628,4666 h 631 V 531 H 3531 V 0 H 628 Z"
   stroke-linecap="round"
   id="path3186" />
</g>
<g
   transform="matrix(0,0,0,0,222.44896,53.199999)"
   id="g3192">
<path
   style="opacity:1;fill:#000000;fill-rule:nonzero;stroke:none;stroke-linecap:butt;stroke-linejoin:miter;stroke-miterlimit:4;stroke-dasharray:none;stroke-dashoffset:0"
   vector-effect="non-scaling-stroke"
   transform="translate(-2762.5,-2333)"
   d="m 628,4666 h 941 L 2759,1491 3956,4666 h 941 V 0 H 4281 V 4097 L 3078,897 H 2444 L 1241,4097 V 0 H 628 Z"
   stroke-linecap="round"
   id="path3190" />
</g>
<g
   transform="matrix(0,0,0,0,232.37896,122.9)"
   id="g3196">
<path
   style="opacity:1;fill:#000000;fill-rule:nonzero;stroke:none;stroke-linecap:butt;stroke-linejoin:miter;stroke-miterlimit:4;stroke-dasharray:none;stroke-dashoffset:0"
   vector-effect="non-scaling-stroke"
   transform="translate(-2134.5,-2333)"
   d="M 1259,4147 V 2394 h 794 q 441,0 681,228 241,228 241,650 0,419 -241,647 -240,228 -681,228 z m -631,519 h 1425 q 785,0 1186,-355 402,-355 402,-1039 0,-691 -402,-1044 -401,-353 -1186,-353 H 1259 V 0 H 628 Z"
   stroke-linecap="round"
   id="path3194" />
</g>
<g
   transform="matrix(0,0,0,0,175.20896,139.91)"
   id="g3200">
<path
   style="opacity:1;fill:#000000;fill-rule:nonzero;stroke:none;stroke-linecap:butt;stroke-linejoin:miter;stroke-miterlimit:4;stroke-dasharray:none;stroke-dashoffset:0"
   vector-effect="non-scaling-stroke"
   transform="translate(-2393.5,-2333)"
   d="m 628,4666 h 850 L 3547,763 v 3903 h 612 V 0 H 3309 L 1241,3903 V 0 H 628 Z"
   stroke-linecap="round"
   id="path3198" />
</g>
</svg>
